Coordinates
version=1
nRows=19
nColumns=18
inDegrees=yes

Units are S.I. units (second, meters, Newtons, ...)
If the header above contains a line with 'inDegrees', this indicates whether rotational values are in degrees (yes) or radians (no).

endheader
time	ground_thorax_rot_x	ground_thorax_rot_y	ground_thorax_rot_z	ground_thorax_tx	ground_thorax_ty	ground_thorax_tz	clav_prot	clav_elev	scapula_abduction	scapula_elevation	scapula_upward_rot	scapula_winging	plane_elv	shoulder_elv	axial_rot	elbow_flexion	pro_sup
      1.12000000	      0.76613981	     -1.58694471	    -21.96611896	     -0.02625651	     -0.01314967	      0.03094539	    -23.56597168	    -16.19426450	    -16.67477914	    -12.15495681	      9.99783466	     34.53222018	     12.40648006	     43.83075095	    -24.66947248	      8.31641730	     63.92270238
      1.14000000	      0.61785572	     -1.28852630	    -21.75413419	     -0.02790418	     -0.01232974	      0.03011537	    -23.62528768	    -16.14561377	    -16.56185626	    -12.21618025	     10.38742673	     34.45254632	     13.58637023	     44.96482674	    -25.73739048	      8.75529960	     63.92270238
      1.16000000	      0.35612731	     -0.90485014	    -21.43346323	     -0.02963098	     -0.01106285	      0.02905749	    -23.70050174	    -16.31263707	    -16.32780199	    -12.45572548	     10.86791297	     34.46825949	     14.25626693	     45.85004402	    -25.87610221	      9.32414890	     63.92270238
      1.18000000	      0.21664540	     -0.59671355	    -21.31280332	     -0.03142176	     -0.01064410	      0.02838214	    -23.84994859	    -16.03382984	    -16.39689535	    -12.37291570	     11.33779141	     34.28228831	     15.79353457	     47.20392600	    -28.54983472	      9.83267826	     63.92270238
      1.20000000	      0.03079160	     -0.25684038	    -21.04641757	     -0.03332889	     -0.00969416	      0.02750515	    -23.93686066	    -15.91089599	    -16.28804987	    -12.40612656	     11.83667582	     34.15244060	     16.86235678	     48.41544295	    -29.73800573	     10.32757284	     63.92270238
      1.22000000	     -0.26117472	      0.10529444	    -20.70627633	     -0.03523062	     -0.00837268	      0.02653149	    -24.03212915	    -15.99910253	    -16.09405057	    -12.59346703	     12.34575829	     34.12825785	     17.58232830	     49.49615551	    -29.90046742	     10.87655200	     63.92270238
      1.24000000	     -0.39903968	      0.47462934	    -20.44344187	     -0.03728893	     -0.00762959	      0.02584686	    -24.22288302	    -15.66383269	    -16.26099489	    -12.46478982	     12.78640371	     33.92859382	     18.95576311	     50.99324398	    -32.13504740	     11.27894414	     63.92270238
      1.26000000	     -0.62307118	      0.82322956	    -20.07432993	     -0.03938846	     -0.00650678	      0.02505231	    -24.33597117	    -15.48209635	    -16.24655180	    -12.44171810	     13.22455669	     33.78639959	     19.98718092	     52.38480168	    -32.99532240	     11.67287327	     63.92270238
      1.28000000	     -0.98948313	      1.22739834	    -19.65784177	     -0.04152703	     -0.00499962	      0.02408728	    -24.50115723	    -15.60478012	    -16.07464982	    -12.67827188	     13.83706068	     33.77638880	     20.52405875	     53.47158714	    -33.18458428	     12.13274652	     63.92270238
      1.30000000	     -1.14695889	      1.61060933	    -19.38427028	     -0.04363610	     -0.00417706	      0.02358348	    -24.84370196	    -15.24769384	    -16.35037616	    -12.58787812	     14.48253663	     33.56363584	     21.80779939	     54.90453303	    -36.06217832	     12.64396724	     63.92270238
      1.32000000	     -1.37948006	      1.94360909	    -18.93780618	     -0.04585671	     -0.00286540	      0.02291171	    -25.01045643	    -15.05298194	    -16.38372088	    -12.56910861	     14.97464643	     33.41655619	     22.73027005	     56.36956108	    -36.84072856	     12.88934983	     63.92270238
      1.34000000	     -1.65436712	      2.35087366	    -18.54936977	     -0.04812242	     -0.00160048	      0.02226300	    -25.33572556	    -14.91602365	    -16.43121645	    -12.67047412	     15.78841281	     33.27542323	     23.50223649	     57.54155855	    -38.69118557	     13.36501744	     63.92270238
      1.36000000	     -1.91004712	      2.68895831	    -18.04748572	     -0.05042895	     -0.00022007	      0.02168485	    -25.55118849	    -14.71045069	    -16.53321513	    -12.64702646	     16.28878620	     33.13124875	     24.37427145	     59.03846768	    -39.53667808	     13.50715353	     63.92270238
      1.38000000	     -2.18144238	      3.06088498	    -17.58519013	     -0.05276701	      0.00121396	      0.02113157	    -25.87062424	    -14.59417906	    -16.60633908	    -12.74228100	     17.02274065	     33.01033539	     25.05644177	     60.31445623	    -40.87589048	     13.84110776	     63.92270238
      1.40000000	     -2.46122262	      3.39677391	    -17.07512668	     -0.05513738	      0.00265990	      0.02058459	    -26.16284688	    -14.41696619	    -16.59036783	    -12.81511610	     17.86573525	     32.83242903	     25.66391409	     61.48969680	    -42.36742421	     14.16402874	     63.92270238
      1.42000000	     -2.70926859	      3.66808677	    -16.50555739	     -0.05757436	      0.00421735	      0.02011751	    -26.36766349	    -14.22051907	    -16.53898133	    -12.83713708	     18.56206046	     32.65126719	     26.27275122	     62.83451754	    -43.25307288	     14.26084449	     63.92270238
      1.44000000	     -2.94970835	      3.95690636	    -15.93749308	     -0.06000797	      0.00579947	      0.01964441	    -26.63277402	    -14.02913813	    -16.49715191	    -12.88915030	     19.37587217	     32.46322612	     26.76752993	     64.04786949	    -44.40128046	     14.48510869	     63.92270238
      1.46000000	     -3.20420421	      4.21117201	    -15.33271262	     -0.06248761	      0.00733033	      0.01918895	    -26.86622432	    -13.76982579	    -16.37528595	    -12.90826234	     20.27367492	     32.21860925	     27.20631960	     65.16558019	    -45.68664983	     14.70449495	     63.92270238
      1.48000000	     -3.47088936	      4.44080441	    -14.71528330	     -0.06493673	      0.00894846	      0.01875830	    -27.12052495	    -13.56164223	    -16.21914002	    -12.97308341	     21.22823967	     31.99264033	     27.52571631	     66.17082674	    -46.94350491	     14.97916186	     63.92270238
